<svg width="30" height="31" viewBox="0 0 30 31" fill="none" xmlns="http://www.w3.org/2000/svg">
<path d="M15.0002 1.70001C22.622 1.70001 28.8002 7.87821 28.8002 15.5C28.8002 23.1218 22.622 29.3 15.0002 29.3C7.3784 29.3 1.2002 23.1218 1.2002 15.5C1.2002 7.87821 7.3784 1.70001 15.0002 1.70001ZM19.7606 21.125C20.0144 20.3462 21.2036 12.5846 21.3506 11.0552C21.395 10.592 21.2486 10.2842 20.9618 10.1468C20.615 9.98001 20.1014 10.0634 19.5056 10.2782C18.6884 10.5728 8.2412 15.0086 7.6376 15.2654C7.0652 15.5084 6.524 15.7736 6.524 16.1576C6.524 16.4276 6.6842 16.5794 7.1258 16.7372C7.5854 16.901 8.7428 17.252 9.4262 17.4404C10.0844 17.6222 10.8338 17.4644 11.2538 17.2034C11.699 16.9268 16.8368 13.4888 17.2058 13.1876C17.5742 12.8864 17.8682 13.2722 17.567 13.574C17.2658 13.8752 13.739 17.2982 13.274 17.7722C12.7094 18.3476 13.1102 18.944 13.4888 19.1828C13.9214 19.4552 17.0324 21.542 17.501 21.8768C17.9696 22.2116 18.4448 22.3634 18.8798 22.3634C19.3148 22.3634 19.544 21.7904 19.7606 21.125Z" fill="#0088CC"/>
</svg>
