<svg width="47" height="47" viewBox="0 0 47 47" fill="none" xmlns="http://www.w3.org/2000/svg">
<path d="M40.6566 45.229H1.77148V1.77087" stroke="white" stroke-width="2" stroke-linecap="round" stroke-linejoin="round"/>
<path d="M7.09961 1.77087H45.2292V45.229" stroke="white" stroke-width="2" stroke-linecap="round" stroke-linejoin="round"/>
<path d="M7.09961 1.77087V7.25672" stroke="white" stroke-width="2" stroke-linecap="round" stroke-linejoin="round"/>
<path d="M17.036 7H11.938V11.6704H7V16.6623H16.7127V11.8327H36V26" stroke="white" stroke-width="2" stroke-linecap="round" stroke-linejoin="round"/>
<path d="M29 16L35 16" stroke="white" stroke-width="2" stroke-linecap="round"/>
<path d="M31 24L26 24" stroke="white" stroke-width="2" stroke-linecap="round"/>
<path d="M40.0008 17.3837L40.0008 8.00006L45.0703 8.00006" stroke="white" stroke-width="2" stroke-linecap="round" stroke-linejoin="round"/>
<path d="M40 24L40 31" stroke="white" stroke-width="2" stroke-linecap="round" stroke-linejoin="round"/>
<path d="M45.229 30.9548H25.9437V21.491L7.5 21.491V26.2213" stroke="white" stroke-width="2" stroke-linecap="round" stroke-linejoin="round"/>
<path d="M40.6568 45.2291V36.0429H30.9741V40.4155H21.3438V30.9548" stroke="white" stroke-width="2" stroke-linecap="round" stroke-linejoin="round"/>
<path d="M7.09961 30.9548H21.3431" stroke="white" stroke-width="2" stroke-linecap="round" stroke-linejoin="round"/>
<path d="M2 36H16V40.5H9.05738" stroke="white" stroke-width="2" stroke-linecap="round" stroke-linejoin="round"/>
<path d="M30.9727 1.77087V7.05937H36.2026" stroke="white" stroke-width="2" stroke-linecap="round" stroke-linejoin="round"/>
<path d="M26.1602 7.05945H30.9738" stroke="white" stroke-width="2" stroke-linecap="round" stroke-linejoin="round"/>
</svg>
