<svg width="49" height="46" viewBox="0 0 49 46" fill="none" xmlns="http://www.w3.org/2000/svg">
<g clip-path="url(#clip0_2801_5030)">
<path d="M18.0147 34.428C18.0438 32.383 16.2373 31.3736 16.2373 31.3736C11.6294 28.6187 8.54297 23.5803 8.54297 17.8205C8.54297 9.10516 15.606 2.04211 24.3214 2.04211C33.0367 2.04211 40.0998 9.10516 40.0998 17.8205C40.0998 23.3534 37.2519 28.2231 32.9407 31.039C32.9407 31.039 31.015 32.319 31.0034 34.0964" stroke="white" stroke-width="2" stroke-linecap="round" stroke-linejoin="round"/>
<path d="M18.1152 37.3196H30.8596" stroke="white" stroke-width="2" stroke-linecap="round" stroke-linejoin="round"/>
<path d="M20.742 40.214H30.8566C30.8566 43.0066 28.5934 45.2727 25.7979 45.2727H23.1681C20.3755 45.2727 18.1094 43.0095 18.1094 40.214" stroke="white" stroke-width="2" stroke-linecap="round" stroke-linejoin="round"/>
<path d="M38.2949 31.3357L41.3523 34.3931" stroke="white" stroke-width="2" stroke-linecap="round" stroke-linejoin="round"/>
<path d="M44.1035 17.5442H48.2139" stroke="white" stroke-width="2" stroke-linecap="round" stroke-linejoin="round"/>
<path d="M41.3523 0.727295L38.2949 3.61011" stroke="white" stroke-width="2" stroke-linecap="round" stroke-linejoin="round"/>
<path d="M10.6472 31.3357L7.58984 34.3931" stroke="white" stroke-width="2" stroke-linecap="round" stroke-linejoin="round"/>
<path d="M4.83698 17.5442H0.726562" stroke="white" stroke-width="2" stroke-linecap="round" stroke-linejoin="round"/>
<path d="M7.58984 0.727295L10.6472 3.61011" stroke="white" stroke-width="2" stroke-linecap="round" stroke-linejoin="round"/>
<path d="M16.0918 17.5442L21.2873 22.6175L32.8476 13.6781" stroke="white" stroke-width="2" stroke-linecap="round" stroke-linejoin="round"/>
</g>
<defs>
<clipPath id="clip0_2801_5030">
<rect width="48.941" height="46" fill="white"/>
</clipPath>
</defs>
</svg>
