<svg width="136" height="76" viewBox="0 0 136 76" fill="none" xmlns="http://www.w3.org/2000/svg">
<g clip-path="url(#clip0_468_4556)">
<path d="M63.7355 12.8384V35.6173L60.6797 43.2899H56.2178V12.8384H63.7355Z" fill="white"/>
<path d="M15.734 43.2899H0L3.01446 35.7414H15.7294C18.4498 35.7414 20.6601 33.5289 20.6601 30.8057C20.6601 28.0825 18.4498 25.87 15.7294 25.87H12.4714C5.59697 25.87 0 20.2673 0 13.3858V12.5164C0 5.6303 5.59697 0.0275879 12.6231 0.0275879H26.1973L23.1829 7.57607H12.476C9.75564 7.57607 7.54534 9.78863 7.54534 12.5118V13.3812C7.54534 16.1043 9.75564 18.3169 12.476 18.3169H15.734C22.6131 18.3169 28.2054 23.9196 28.2054 30.8011C28.2054 37.6826 22.6085 43.2853 15.734 43.2853V43.2899Z" fill="white"/>
<path d="M97.7494 21.6611C97.7494 23.4918 97.5289 25.2582 97.1061 26.951C94.8728 36.0864 86.8174 42.9265 75.5683 43.2899C75.2512 43.3037 74.925 43.3129 74.6033 43.3129H71.3959L69.4797 43.3037L63.7402 43.2899L66.7455 35.7322L72.5355 35.7414H77.0296C78.6839 35.6586 80.2738 35.2814 81.7305 34.6697C84.9472 33.3265 87.5572 30.8149 89.0461 27.664C89.9054 25.8424 90.3879 23.8092 90.3879 21.6611C90.3879 20.8745 90.319 20.1063 90.1903 19.3473C89.2896 13.8596 85.2137 9.42985 79.9154 8.03147C77.8338 7.46568 72.7974 7.51168 72.0392 7.52548H64.3928L67.3015 0H76.1106C77.2869 0 78.4449 0.0965985 79.5753 0.280596C84.722 1.11318 89.2713 3.77194 92.5293 7.57148C95.7735 11.3572 97.7448 16.2837 97.7448 21.6565L97.7494 21.6611Z" fill="white"/>
<path d="M71.3908 43.3129H69.4746V43.3037L71.3908 43.3129Z" fill="white"/>
<path d="M110.18 35.4056L126.332 28.8645C125.629 25.4652 124.237 22.8248 122.15 20.9527C120.064 19.0897 117.413 18.1513 114.191 18.1513C111.756 18.1513 109.523 18.7171 107.51 19.8441C105.497 20.9757 103.903 22.4844 102.713 24.3704C101.532 26.2564 100.943 28.3861 100.943 30.7505C100.943 33.1149 101.463 35.355 102.497 37.2456C103.53 39.1316 105.038 40.6128 107.018 41.6845C108.99 42.7609 111.329 43.2945 114.031 43.2945C115.395 43.2945 116.806 43.0599 118.267 42.5999C119.724 42.1399 121.066 41.5235 122.288 40.7461L119.793 34.5178C114.297 38.0046 110.4 35.723 110.18 35.4102V35.4056ZM118.456 25.502L107.68 30.2721C107.22 26.0678 113.226 21.6519 118.456 25.502Z" fill="white"/>
<path d="M40.4746 18.1513L29.584 43.3129H51.3699L40.4792 18.1513H40.4746Z" fill="white"/>
<path d="M63.7355 3.76274C63.7355 5.84191 62.0537 7.52548 59.9767 7.52548C57.8996 7.52548 56.2178 5.84191 56.2178 3.76274C56.2178 1.68357 57.8996 0 59.9767 0C62.0537 0 63.7355 1.68357 63.7355 3.76274Z" fill="white"/>
<path d="M35.4153 50.6682H0L10.1233 76H46.0533L35.4153 50.6682ZM21.8227 69.7303C20.5176 70.6641 18.7071 71.2069 16.0327 71.4737C15.7708 70.9953 15.7524 70.9631 14.9436 70.0109C17.3883 69.8867 19.0058 69.5371 20.1316 68.9023C20.9404 68.4423 21.524 67.8627 21.8043 67.2464C21.9605 66.8784 22.0478 66.561 22.1397 65.871H23.8813C23.6332 67.8443 23.1231 68.7781 21.8227 69.7303ZM29.947 71.5243C28.9269 71.1195 28.665 71.0321 26.7625 70.5031C26.6752 70.4709 25.4805 70.1903 23.1921 69.6061L24.1111 68.1985C24.7223 68.3227 25.0761 68.4101 27.677 69.0449C28.6833 69.3071 28.789 69.3255 30.6363 69.9419L29.947 71.5243ZM30.5444 66.032C30.3009 65.9446 30.2319 65.9262 29.9838 65.8388C29.1383 65.5582 28.8947 65.4524 28.3846 65.1856V66.6668C28.3846 67.1589 28.3984 67.5821 28.4536 68.4607H26.4638C26.5006 68.0375 26.5006 67.7937 26.519 67.0532V65.3282H19.5343V67.09C19.5343 67.159 19.5343 67.2464 19.5526 67.3889C19.5526 67.9179 19.5526 68.0743 19.5848 68.4607H17.6181C17.6686 68.0053 17.687 67.5821 17.687 66.6852V65.2408C17.0528 65.5904 16.7542 65.7146 15.5226 66.1194C15.2929 65.5214 15.1366 65.2224 14.6771 64.5876C16.2257 64.2012 17.108 63.847 18.3211 63.0926H16.7725C15.927 63.0926 15.5962 63.1064 15.0493 63.1984V61.6804C15.5226 61.754 15.9086 61.7678 16.7725 61.7678H19.9203V61.1376H18.5325C17.7421 61.1376 17.4388 61.156 16.9655 61.2066V59.9049C17.4067 59.9555 17.7054 59.9739 18.5325 59.9739H19.9203V59.3069H18.4268C17.6364 59.3069 17.2642 59.3207 16.7358 59.3759V58.8653L15.2929 58.8837C15.3664 58.5479 15.3848 58.2489 15.3848 57.6509V56.8919C15.3848 56.3997 15.3664 56.1881 15.3113 55.8339C15.8949 55.8891 16.3498 55.9075 17.2458 55.9075H21.8732C21.7354 55.6959 21.6297 55.5533 21.3815 55.2175L23.3161 54.6011C23.6332 55.0979 23.7573 55.3417 24.0376 55.9075H28.8212C29.7219 55.9075 30.1768 55.8891 30.7558 55.8339C30.7052 56.1881 30.6869 56.3997 30.6869 56.8919V57.6831C30.6869 58.2857 30.7052 58.5663 30.7742 58.9205H29.4048V59.3759C28.858 59.3207 28.4903 59.3069 27.7137 59.3069H26.0779V59.9739H27.6081C28.4352 59.9739 28.7339 59.9555 29.1566 59.9049V61.2066C28.665 61.156 28.3663 61.1376 27.6081 61.1376H26.0779V61.7678H29.3313C30.1768 61.7678 30.5444 61.754 31.0407 61.6804V63.1984C30.4755 63.1064 30.1768 63.0926 29.3313 63.0926H27.677C29.0004 63.847 29.8781 64.1828 31.3715 64.5002C30.9855 65.0614 30.8109 65.3788 30.5444 66.032ZM28.8763 58.0189V57.2967H26.0779V58.0373H27.8378C28.472 58.0373 28.5776 58.0373 28.8763 58.0189ZM20.6969 63.0926C20.536 63.249 20.4303 63.318 20.0443 63.617C19.764 63.8286 19.7273 63.847 19.6078 63.9528H26.4133C25.9354 63.6032 25.7975 63.4974 25.2691 63.0926H20.6969ZM24.3179 61.1376H21.6802V61.7678H24.3179V61.1376ZM24.3179 59.3069H21.6802V59.9739H24.3179V59.3069ZM24.3179 57.2967H21.6802V58.0373H24.3179V57.2967ZM19.9203 57.2967H17.1953V58.0005C17.494 58.0373 17.6686 58.0373 18.266 58.0373H19.9203V57.2967Z" fill="#F09123"/>
<path d="M80.3753 50.6682H44.96L55.0832 76H91.0132L80.3753 50.6682ZM72.035 67.4395L70.7345 68.4607C69.889 67.4395 69.3606 66.8968 68.5702 66.2942L69.2549 65.8756H66.0015C65.2616 65.8756 64.8756 65.8894 64.3104 65.9446V64.1828C64.8389 64.2518 65.3673 64.2702 66.1577 64.2702H74.2499C75.0954 64.2702 75.6055 64.238 76.0971 64.1828V65.963C75.5182 65.8894 75.2011 65.8756 74.4107 65.8756H70.2934C70.9275 66.3494 71.4376 66.8048 72.035 67.4395ZM62.238 56.3307C62.8354 55.7465 63.134 55.3601 63.396 54.8679L65.0135 55.9075C64.9262 55.9949 64.8756 56.0639 64.8205 56.1191C64.7883 56.1697 64.7699 56.1697 64.7332 56.2065C65.28 56.2755 65.7533 56.2939 66.5437 56.2939H69.2733C69.3054 56.1375 69.3422 55.7327 69.3973 55.0979L71.3641 55.2037C71.2951 55.6085 71.1895 56.1375 71.1711 56.2939H74.1258C74.9713 56.2939 75.4814 56.2571 75.9731 56.2065V57.9499C75.3941 57.8809 75.077 57.8625 74.2866 57.8625H70.9275C70.9153 57.9545 70.8908 58.094 70.854 58.2811C70.8402 58.4421 70.8035 58.6031 70.7345 58.9021H73.9696C74.5486 58.9021 75.077 58.8837 75.5181 58.8469C75.463 59.2517 75.4492 59.5507 75.4492 60.2407V62.0346C75.4492 62.651 75.463 62.9868 75.5181 63.3732C75.0265 63.318 74.6542 63.2996 73.9879 63.2996H66.4058C65.9141 63.2996 65.6155 63.2996 64.9262 63.3548C64.9629 63.0052 64.9813 62.72 64.9813 62.2462V60.0291C64.9813 59.5185 64.9629 59.1965 64.9262 58.8469C65.5098 58.8837 65.8406 58.9021 66.3507 58.9021H68.8321C68.901 58.6031 68.9746 58.2673 69.0435 57.8625H66.3875C65.6476 57.8625 65.2616 57.8809 64.701 57.9315V56.2571C64.6091 56.3629 64.5769 56.4181 64.4896 56.5055C63.589 57.5773 63.327 57.8441 62.4631 58.5847C61.8152 59.1275 61.4108 59.4449 60.7951 59.8313C60.478 59.1137 60.2988 58.8101 59.7887 58.1753C60.8824 57.5451 61.443 57.1219 62.238 56.3307ZM61.5303 71.3127C61.6038 70.8389 61.636 70.2593 61.636 69.3761V65.9078C61.636 65.414 61.6483 64.7501 61.6728 63.916C61.25 64.5186 61.0202 64.7486 60.4045 65.273C60.1426 64.3576 59.9496 63.9528 59.5957 63.41C60.7583 62.5452 61.6911 61.5746 62.4631 60.4155C62.8859 59.7807 63.1846 59.2517 63.3638 58.8285L64.8572 59.9371C64.7148 60.1349 64.5586 60.3787 64.3288 60.7651C64.1358 61.1009 63.8003 61.5746 63.4695 62.0346V69.2197C63.4695 70.3651 63.4833 70.8021 63.5568 71.3127H61.5303ZM65.1192 70.7883L63.6763 69.6061C64.5218 68.4607 64.9629 67.6005 65.2616 66.4736L66.8286 67.2279C66.2818 68.7781 65.859 69.6751 65.1192 70.7883ZM72.9494 70.6089C72.5083 70.9631 71.7363 71.1011 70.1877 71.1011C69.0067 71.1011 68.3772 71.0321 67.9544 70.8757C67.357 70.6457 67.1089 70.2593 67.1089 69.5509V68.1111C67.1089 67.5131 67.0905 67.1911 67.0216 66.7542H68.9378C68.8689 67.2647 68.8505 67.4763 68.8505 68.0053V68.9713C68.8505 69.3623 69.0435 69.4313 70.0131 69.4313C71.1711 69.4313 71.4698 69.3945 71.7179 69.2703C71.966 69.1139 72.0671 68.7275 72.0855 67.7569C72.7564 68.0559 72.9494 68.1111 73.7398 68.2859C73.6341 69.5187 73.3722 70.2593 72.9494 70.6089ZM74.8151 70.8021C74.2682 68.9713 74.0385 68.4423 73.2114 67.1912L74.7094 66.4368C75.6422 67.7569 75.9225 68.3181 76.3775 69.7487L74.8151 70.8021ZM73.8087 60.3787H72.4026V61.8046H73.8087V60.3787ZM70.9275 60.3787H69.503V61.8046H70.9275V60.3787ZM66.5988 61.8046H68.0234V60.3787H66.5988V61.8046Z" fill="#F09123"/>
<path d="M125.362 50.6682H89.9463L100.07 76H136L125.362 50.6682ZM101.131 65.9262L99.0586 60.7421H106.305L108.483 65.9262H101.131ZM110.331 65.9262L108.258 60.7421H115.505L117.683 65.9262H110.331ZM117.467 60.7421H124.714L126.887 65.9262H119.535L117.467 60.7421Z" fill="#F09123"/>
<path d="M26.0779 57.2967H28.8764V58.0189C28.5777 58.0373 28.472 58.0373 27.8378 58.0373H26.0779V57.2967ZM21.6802 57.2967H24.3179V58.0373H21.6802V57.2967ZM21.6802 59.3069H24.3179V59.9739H21.6802V59.3069ZM21.6802 61.1376H24.3179V61.7678H21.6802V61.1376ZM18.266 58.0373C17.6686 58.0373 17.494 58.0373 17.1953 58.0005V57.2967H19.9203V58.0373H18.266ZM19.6078 63.9528C19.7273 63.847 19.764 63.8286 20.0443 63.617C20.4303 63.318 20.536 63.249 20.6969 63.0926H25.2691C25.7976 63.4974 25.9354 63.6032 26.4133 63.9528H19.6078Z" fill="#F09123"/>
<path d="M68.0232 61.8046H66.5986V60.3786H68.0232V61.8046ZM72.4024 60.3786H73.8085V61.8046H72.4024V60.3786ZM70.9273 60.3786V61.8046H69.5028V60.3786H70.9273Z" fill="#F09123"/>
</g>
<defs>
<clipPath id="clip0_468_4556">
<rect width="136" height="76" fill="white"/>
</clipPath>
</defs>
</svg>
