<svg width="130" height="76" viewBox="0 0 130 76" fill="none" xmlns="http://www.w3.org/2000/svg">
<g clip-path="url(#clip0_255_505)">
<path d="M71.0564 0H56.0417V25.2697H71.0564V0Z" fill="white"/>
<path d="M105.182 35.2817C105.182 35.2817 106.685 40.2461 103.582 44.4537H114.42V35.2817H105.182Z" fill="white"/>
<path d="M112.608 24.5129C112.608 24.5129 112.677 23.0305 110.695 22.1869C109.216 21.5551 104.634 19.6873 101.232 18.5452C101.207 18.757 92.9692 8.4637 90.1642 5.19C89.4004 4.30127 88.1506 4.18671 86.6718 4.18671C86.5988 4.18671 80.902 4.18671 75.0142 4.18671V34.5874H85.2901C86.6301 30.4354 90.5113 27.4012 95.1008 27.4012C99.1382 27.4012 102.631 29.873 104.318 33.0425H112.605V24.5163L112.608 24.5129ZM82.1587 23.1589C82.1587 23.2909 81.9643 23.0826 81.7213 23.0826H78.1802C77.9372 23.0826 77.6317 23.2909 77.6317 23.1589V21.0968C77.6317 20.9649 77.9372 20.3678 78.1802 20.3678H81.7213C81.9643 20.3678 82.1587 20.9649 82.1587 21.0968V23.1589ZM94.5453 18.0731H79.6071C78.694 18.0731 77.6248 17.778 77.6248 16.8649V8.53313C77.6248 7.62011 78.694 6.37034 79.6071 6.37034H86.946C87.9701 6.37034 88.4943 7.1445 89.1539 7.90825C90.303 9.2344 95.7465 15.4347 96.1943 16.556C96.6387 17.6773 96.0902 18.0731 94.5453 18.0731Z" fill="white"/>
<path d="M95.1007 29.5745C90.4106 29.5745 86.6057 33.3689 86.6057 38.0521C86.6057 42.7353 90.4071 46.5297 95.1007 46.5297C99.7943 46.5297 103.582 42.7353 103.582 38.0521C103.582 33.3689 99.7839 29.5745 95.1007 29.5745ZM95.1007 42.8915C92.4241 42.8915 90.2544 40.7252 90.2544 38.0556C90.2544 35.3859 92.4241 33.2196 95.1007 33.2196C97.7773 33.2196 99.9401 35.3859 99.9401 38.0556C99.9401 40.7252 97.7738 42.8915 95.1007 42.8915Z" fill="white"/>
<path d="M71.0565 28.592H18.462C16.7366 28.592 19.9547 34.5805 26.3945 34.5805H71.0565V28.592Z" fill="#F7941D"/>
<path d="M52.4141 19.2777H13.9419C12.2166 19.2777 15.4347 25.2662 21.8745 25.2662H52.4106V19.2777H52.4141Z" fill="#F7941D"/>
<path d="M52.414 0H4.81154C3.43332 0 5.84955 5.87393 13.7787 5.87393H52.414V0Z" fill="#F7941D"/>
<path d="M52.414 9.75861H9.44965C7.49167 9.75861 11.6333 15.5145 18.4168 15.5145H52.414V9.75861Z" fill="#F7941D"/>
<path d="M84.5402 38.4652H22.982C21.2566 38.4652 24.4748 44.4537 30.9146 44.4537H86.644C86.644 44.4537 85.5782 43.4365 84.995 41.8604C84.5228 40.5898 84.5402 38.4652 84.5402 38.4652Z" fill="#F7941D"/>
<path d="M15.9832 67.203L20.6907 53.1257H26.0508L17.8752 75.6737H12.3936L11.4805 62.8983L6.61685 75.6737H1.13174L0 53.1257H5.15878L5.46775 67.1405L10.6404 53.1257H15.1465L15.9832 67.203Z" fill="white"/>
<path d="M30.1541 75.6737H24.8564L28.7759 53.1257H34.0562L30.1541 75.6737Z" fill="white"/>
<path d="M45.6861 69.5706C45.9118 68.4042 45.2834 67.5015 43.7976 66.8593L41.2564 65.8074C37.6945 64.207 36.0004 62.0268 36.1774 59.2704C36.2503 58.0102 36.6843 56.8889 37.4793 55.903C38.2743 54.917 39.3748 54.1498 40.7773 53.6048C42.1798 53.0563 43.7142 52.7959 45.3771 52.8133C47.6059 52.8549 49.4007 53.5041 50.7581 54.7643C52.1155 56.0245 52.7855 57.7117 52.7647 59.8293H47.4983C47.5295 58.9614 47.3455 58.2671 46.9498 57.7464C46.5505 57.2256 45.8979 56.9549 44.9918 56.934C44.1031 56.9132 43.3185 57.1215 42.638 57.552C41.9576 57.9824 41.5549 58.5691 41.4299 59.3017C41.2321 60.3327 41.9993 61.1798 43.7281 61.8429C45.457 62.5025 46.7137 63.0718 47.4983 63.5474C49.9666 65.0228 51.1226 67.0155 50.9664 69.5255C50.8831 70.8273 50.4665 71.966 49.7131 72.9485C48.9598 73.9309 47.9149 74.6877 46.5783 75.2258C45.2417 75.7639 43.742 76.0208 42.0791 76C40.8606 75.9792 39.7289 75.7882 38.6874 75.4272C37.6459 75.0661 36.7502 74.5384 36.0073 73.8476C34.5006 72.4555 33.7786 70.6225 33.8376 68.3486L39.1491 68.3625C39.0866 69.5185 39.3088 70.3934 39.8156 70.987C40.3225 71.5807 41.173 71.8792 42.3707 71.8792C43.2595 71.8792 43.9989 71.6744 44.5925 71.2682C45.1862 70.862 45.5507 70.2962 45.6861 69.5741V69.5706Z" fill="white"/>
<path d="M91.7889 57.3229H85.2206L82.0441 75.6737H76.7326L79.923 57.3229H73.4658L74.2087 53.1257H92.5144L91.7854 57.3229H91.7889Z" fill="#F7941D"/>
<path d="M117.916 75.9827C115.573 75.9306 113.694 75.1564 112.278 73.6602C110.865 72.1639 110.063 70.1608 109.879 67.6509C109.775 66.4115 109.872 64.9534 110.174 63.2767C110.473 61.5999 111.004 60.0516 111.768 58.6386C112.532 57.2257 113.486 56.0488 114.632 55.108C116.552 53.5284 118.763 52.7647 121.259 52.8168C122.797 52.848 124.14 53.2021 125.293 53.8791C126.446 54.556 127.366 55.5281 128.056 56.7987C128.747 58.0693 129.15 59.5135 129.265 61.1347C129.348 62.2803 129.278 63.5856 129.056 65.0437C128.834 66.5052 128.428 67.8973 127.834 69.2235C127.241 70.5496 126.473 71.7196 125.536 72.7298C124.595 73.74 123.488 74.5454 122.214 75.1391C120.94 75.7327 119.506 76.0139 117.916 75.9827ZM123.956 61.0826C123.852 58.5032 122.853 57.1597 120.954 57.0556C119.489 56.9827 118.274 57.5659 117.315 58.7983C116.354 60.0307 115.722 61.8533 115.409 64.2591C115.212 65.745 115.142 66.8975 115.194 67.7133C115.298 70.3344 116.309 71.6848 118.228 71.7543C119.489 71.8168 120.572 71.3655 121.481 70.4004C122.391 69.4353 123.047 68.0293 123.45 66.1893C123.852 64.3494 124.022 62.6448 123.96 61.0861L123.956 61.0826Z" fill="#F7941D"/>
<path d="M102.561 75.6737H108.074L103.908 53.1257H98.9229L91.4347 67.2655H87.609C86.7654 67.2655 87.5951 69.2964 89.6989 70.5462L86.9841 75.6772H92.8233L94.8021 71.5043H102.027L102.565 75.6772L102.561 75.6737ZM100.485 59.4892L101.478 67.262H96.8018L100.489 59.4892H100.485Z" fill="#F7941D"/>
<path d="M71.0252 57.3229L71.7542 53.1257H56.625L55.0663 62.1241H51.803C50.9108 62.1241 51.9835 64.391 54.4935 65.4464L52.723 75.6772H67.8244L68.5534 71.4974H58.7496L59.6939 66.1095H67.9806L68.6784 62.0824H60.3778L61.2145 57.3264H71.0321L71.0252 57.3229Z" fill="white"/>
</g>
<defs>
<clipPath id="clip0_255_505">
<rect width="129.303" height="76" fill="white"/>
</clipPath>
</defs>
</svg>
