<svg width="35" height="35" viewBox="0 0 35 35" fill="none" xmlns="http://www.w3.org/2000/svg">
<path d="M30.625 26.9792C30.625 29.0208 29.0208 30.625 26.9792 30.625H8.02083C5.97917 30.625 4.375 29.0208 4.375 26.9792V8.02083C4.375 5.97917 5.97917 4.375 8.02083 4.375H26.9792C29.0208 4.375 30.625 5.97917 30.625 8.02083V26.9792Z" fill="#FF9800"/>
<path d="M19.6148 22.1667C20.7085 21.9479 21.7294 21.5104 22.6044 20.9271C23.3335 20.4896 23.5523 19.5417 23.1148 18.8125C22.6773 18.0834 21.7294 17.8646 21.0002 18.3021C18.8856 19.6146 16.1148 19.6146 14.0002 18.3021C13.271 17.8646 12.3231 18.0834 11.8856 18.8125C11.4481 19.5417 11.6669 20.4896 12.396 20.9271C13.3439 21.5104 14.3648 21.9479 15.3856 22.1667L12.4689 25.0834C11.8856 25.6667 11.8856 26.6146 12.4689 27.2709C12.7606 27.5625 13.1252 27.7084 13.5627 27.7084C13.9273 27.7084 14.3648 27.5625 14.6564 27.2709L17.5002 24.4271L20.3439 27.2709C20.9273 27.8542 21.8752 27.8542 22.5314 27.2709C23.1148 26.6875 23.1148 25.7396 22.5314 25.0834L19.6148 22.1667ZM17.5002 7.29169C14.6564 7.29169 12.396 9.5521 12.396 12.3959C12.396 15.2396 14.6564 17.5 17.5002 17.5C20.3439 17.5 22.6044 15.2396 22.6044 12.3959C22.6044 9.5521 20.3439 7.29169 17.5002 7.29169ZM17.5002 14.5834C16.2606 14.5834 15.3127 13.6354 15.3127 12.3959C15.3127 11.1563 16.2606 10.2084 17.5002 10.2084C18.7398 10.2084 19.6877 11.1563 19.6877 12.3959C19.6877 13.6354 18.7398 14.5834 17.5002 14.5834Z" fill="white"/>
</svg>
