<svg width="35" height="35" viewBox="0 0 35 35" fill="none" xmlns="http://www.w3.org/2000/svg">
<path d="M30.625 26.9792C30.625 28.9931 28.9931 30.625 26.9792 30.625H8.02083C6.0076 30.625 4.375 28.9931 4.375 26.9792V8.02083C4.375 6.00688 6.0076 4.375 8.02083 4.375H26.9792C28.9931 4.375 30.625 6.00688 30.625 8.02083V26.9792Z" fill="#1976D2"/>
<path d="M26.2041 13.1549C26.2376 13.0448 26.2536 12.9427 26.2493 12.8515C26.2383 12.5876 26.0568 12.3958 25.6295 12.3958H23.7205C23.2385 12.3958 23.0161 12.6875 22.8864 12.9799C22.8864 12.9799 21.6964 15.4291 20.3248 17.0443C19.88 17.5116 19.654 17.5 19.4133 17.5C19.2843 17.5 18.9583 17.3439 18.9583 16.9159V13.1352C18.9583 12.6291 18.8322 12.3958 18.4246 12.3958H15.0347C14.7379 12.3958 14.5833 12.6291 14.5833 12.8632C14.5833 13.3496 15.2381 13.4662 15.3125 14.829V17.4708C15.3125 18.1125 15.2009 18.2291 14.9603 18.2291C14.3114 18.2291 13.0339 16.0416 12.1785 13.1746C11.9933 12.6102 11.8081 12.3958 11.3261 12.3958H9.39896C8.8426 12.3958 8.75 12.6685 8.75 12.9602C8.75 13.4859 9.1875 16.3282 11.5755 19.5963C13.3073 21.9661 15.5889 23.3333 17.6086 23.3333C18.8322 23.3333 18.9576 23.022 18.9576 22.5356V20.3685C18.9583 19.7845 19.0918 19.6875 19.4811 19.6875C19.759 19.6875 20.3255 19.8698 21.4193 21.1458C22.6807 22.6173 22.9097 23.3333 23.633 23.3333H25.542C25.9853 23.3333 26.2398 23.1474 26.25 22.7864C26.2522 22.6946 26.2391 22.5918 26.2092 22.4773C26.0677 22.0573 25.4187 21.0306 24.6094 20.0521C24.1609 19.5103 23.7183 18.9736 23.5149 18.682C23.3785 18.4916 23.3268 18.3575 23.3333 18.2291C23.3399 18.0943 23.4099 17.9659 23.5149 17.7865C23.4959 17.7865 25.9634 14.3223 26.2041 13.1549Z" fill="white"/>
</svg>
