<svg width="35" height="35" viewBox="0 0 35 35" fill="none" xmlns="http://www.w3.org/2000/svg">
<path d="M3.5498 31.5751L5.51418 24.4037C4.3023 22.3052 3.66501 19.9237 3.66574 17.4847C3.66939 9.85394 9.87897 3.64581 17.5104 3.64581C21.2139 3.64727 24.6891 5.08883 27.3031 7.70435C29.9165 10.3206 31.3558 13.7973 31.3544 17.4956C31.3515 25.1263 25.1404 31.3352 17.5104 31.3352H17.5046C15.188 31.3345 12.9108 30.7533 10.8889 29.6501L3.5498 31.5751Z" fill="white"/>
<path d="M3.54981 31.9397C3.45356 31.9397 3.36023 31.9018 3.29096 31.8318C3.19981 31.7392 3.16408 31.6043 3.19835 31.4796L5.12262 24.4533C3.92971 22.3344 3.30044 19.9281 3.30189 17.4854C3.30481 9.65271 9.67846 3.28125 17.5104 3.28125C21.3094 3.28271 24.8787 4.76219 27.5613 7.44698C30.2439 10.1325 31.7204 13.701 31.719 17.4956C31.7161 25.3276 25.3417 31.6998 17.5104 31.6998C15.1851 31.6991 12.8846 31.1252 10.8429 30.0395L3.64242 31.9273C3.61179 31.936 3.58117 31.9397 3.54981 31.9397Z" fill="white"/>
<path d="M17.5104 3.64585C21.2138 3.64731 24.6891 5.08887 27.3031 7.7044C29.9164 10.3206 31.3558 13.7973 31.3544 17.4956C31.3514 25.1264 25.1404 31.3352 17.5104 31.3352H17.5046C15.188 31.3345 12.9108 30.7534 10.8888 29.6501L3.54978 31.5751L5.51415 24.4038C4.30228 22.3052 3.66499 19.9238 3.66572 17.4847C3.66936 9.85398 9.87895 3.64585 17.5104 3.64585ZM17.5104 2.91669C9.4779 2.91669 2.9402 9.45148 2.93655 17.4847C2.93582 19.9398 3.55561 22.3592 4.73103 24.5008L2.84613 31.3834C2.77759 31.6349 2.84759 31.9033 3.03134 32.0885C3.16988 32.2285 3.35728 32.305 3.54978 32.305C3.61176 32.305 3.67374 32.297 3.73499 32.281L10.7984 30.4289C12.8605 31.4993 15.172 32.0644 17.5046 32.0651C25.5429 32.0651 32.0806 25.5296 32.0843 17.4964C32.0857 13.6034 30.5712 9.94294 27.8201 7.1896C25.0675 4.43554 21.4063 2.91815 17.5104 2.91669Z" fill="#CFD8DC"/>
<path d="M25.6491 9.35664C23.4762 7.18227 20.588 5.98425 17.5138 5.98352C11.1671 5.98352 6.00536 11.1431 6.00244 17.4854C6.00171 19.659 6.60984 21.7751 7.76192 23.6075L8.03609 24.0428L6.87307 28.2873L11.2284 27.1454L11.6491 27.3948C13.4151 28.4433 15.4408 28.9975 17.5058 28.9982H17.5101C23.8524 28.9982 29.0142 23.8379 29.0164 17.4949C29.0171 14.4214 27.822 11.531 25.6491 9.35664Z" fill="#40C351"/>
<path fill-rule="evenodd" clip-rule="evenodd" d="M14.0497 11.6995C13.7909 11.1234 13.5182 11.1118 13.271 11.1015C13.069 11.0928 12.8386 11.0935 12.6082 11.0935C12.3777 11.0935 12.0029 11.1803 11.6858 11.5266C11.3686 11.873 10.4746 12.7094 10.4746 14.4112C10.4746 16.1131 11.7142 17.7581 11.887 17.9885C12.0598 18.2189 14.2801 21.8232 17.7962 23.2101C20.7179 24.3622 21.3129 24.1332 21.9473 24.0756C22.5817 24.018 23.9941 23.2392 24.2821 22.4313C24.5701 21.6234 24.5701 20.9314 24.4841 20.7871C24.3973 20.6427 24.1669 20.5566 23.8213 20.3831C23.4756 20.2096 21.7745 19.3732 21.4573 19.258C21.1401 19.1428 20.9097 19.0852 20.6786 19.4315C20.4481 19.7772 19.7853 20.5566 19.5834 20.7871C19.3814 21.0182 19.1794 21.0474 18.8338 20.8738C18.4882 20.7003 17.374 20.3357 16.052 19.1574C15.0239 18.2408 14.3297 17.1084 14.1277 16.7621C13.9258 16.4164 14.1059 16.229 14.2794 16.0562C14.4347 15.9009 14.625 15.6523 14.7986 15.4503C14.9714 15.2483 15.029 15.1039 15.1442 14.8735C15.2594 14.6424 15.2018 14.4404 15.115 14.2676C15.0297 14.094 14.3574 12.3834 14.0497 11.6995Z" fill="white"/>
</svg>
