<svg width="44" height="45" viewBox="0 0 44 45" fill="none" xmlns="http://www.w3.org/2000/svg">
<path d="M24.97 37.3494H5.3401C3.34375 37.3494 1.72461 35.7302 1.72461 33.7339V5.34096C1.72461 3.3446 3.34375 1.72546 5.3401 1.72546H33.7331C35.7294 1.72546 37.3486 3.3446 37.3486 5.34096V24.73" stroke="white" stroke-width="2" stroke-linecap="round" stroke-linejoin="round"/>
<path d="M17.3535 8.59375H31.5369" stroke="white" stroke-width="2" stroke-linecap="round" stroke-linejoin="round"/>
<path d="M17.3535 15.9697H31.5369" stroke="white" stroke-width="2" stroke-linecap="round" stroke-linejoin="round"/>
<path d="M17.3867 30.4811H21.1183" stroke="white" stroke-width="2" stroke-linecap="round" stroke-linejoin="round"/>
<path d="M37.8367 42.4128L21.7004 26.2765L21.1172 21.5236L25.8701 22.1068L42.0064 38.243C43.1584 39.395 43.1584 41.2608 42.0064 42.4128C40.8544 43.5647 38.9886 43.5647 37.8367 42.4128Z" stroke="white" stroke-width="2" stroke-linecap="round" stroke-linejoin="round"/>
<path d="M38.9197 35.1586L34.75 39.3283" stroke="white" stroke-width="2" stroke-linecap="round" stroke-linejoin="round"/>
<path d="M7.02148 8.28608L8.91338 10.1432L12.3025 7.04126" stroke="white" stroke-width="2" stroke-linecap="round" stroke-linejoin="round"/>
<path d="M7.02148 15.6622L8.91338 17.5222L12.3025 14.4174" stroke="white" stroke-width="2" stroke-linecap="round" stroke-linejoin="round"/>
<path d="M7.02148 22.7684L8.91338 24.6284L12.3025 21.5265" stroke="white" stroke-width="2" stroke-linecap="round" stroke-linejoin="round"/>
<path d="M7.02148 29.8775L8.91338 31.7375L12.3025 28.6327" stroke="white" stroke-width="2" stroke-linecap="round" stroke-linejoin="round"/>
</svg>
