<svg width="43" height="52" viewBox="0 0 43 52" fill="none" xmlns="http://www.w3.org/2000/svg">
<path d="M34.1267 24.8672H19.9531" stroke="white" stroke-width="2" stroke-linecap="round" stroke-linejoin="round"/>
<path d="M20.6309 9.64429H41.5095L35.5104 16.9866L41.5095 24.8672H37.153" stroke="white" stroke-width="2" stroke-linecap="round" stroke-linejoin="round"/>
<path d="M19.9531 7.52651C21.5657 7.52651 22.873 6.21924 22.873 4.60664C22.873 2.99404 21.5657 1.68677 19.9531 1.68677C18.3405 1.68677 17.0332 2.99404 17.0332 4.60664C17.0332 6.21924 18.3405 7.52651 19.9531 7.52651Z" stroke="white" stroke-width="2" stroke-linecap="round" stroke-linejoin="round"/>
<path d="M19.9531 7.52649V39.8923" stroke="white" stroke-width="2" stroke-linecap="round" stroke-linejoin="round"/>
<path d="M24.7491 14.4786H19.9531" stroke="white" stroke-width="2" stroke-linecap="round" stroke-linejoin="round"/>
<path d="M30.2121 14.4786H27.707" stroke="white" stroke-width="2" stroke-linecap="round" stroke-linejoin="round"/>
<path d="M19.4289 40.2054H20.7172C23.1454 40.2054 25.1149 42.1777 25.1149 44.6031V44.9959H15.0312V44.6031C15.0312 42.1749 17.0035 40.2054 19.4289 40.2054Z" stroke="white" stroke-width="2" stroke-linecap="round" stroke-linejoin="round"/>
<path d="M11.1465 50.5032H7.00977L8.97375 47.1961C9.78406 45.8309 11.2536 44.9958 12.8413 44.9958H27.166C28.1191 44.9958 29.0283 45.298 29.7782 45.8336" stroke="white" stroke-width="2" stroke-linecap="round" stroke-linejoin="round"/>
<path d="M31.6484 48.2317L32.9971 50.5033H16.3184" stroke="white" stroke-width="2" stroke-linecap="round" stroke-linejoin="round"/>
<path d="M15.6387 50.5033H38.2341" stroke="white" stroke-width="2" stroke-linecap="round" stroke-linejoin="round"/>
<path d="M1.6875 50.5033H11.4662" stroke="white" stroke-width="2" stroke-linecap="round" stroke-linejoin="round"/>
</svg>
