<svg width="37" height="52" viewBox="0 0 37 52" fill="none" xmlns="http://www.w3.org/2000/svg">
<path d="M28.5631 8.37805H33.213C34.379 8.37805 35.323 9.32209 35.323 10.4881V48.1904C35.323 49.3564 34.379 50.3004 33.213 50.3004H3.81315C2.64716 50.3004 1.70312 49.3564 1.70312 48.1904V10.4853C1.70312 9.31928 2.64716 8.37524 3.81315 8.37524H8.86204" stroke="white" stroke-width="2" stroke-linecap="round" stroke-linejoin="round"/>
<path d="M24.0469 5.6134H13.508C12.7151 5.6134 12.0723 6.2562 12.0723 7.04912V9.98236C12.0723 10.7753 12.7151 11.4181 13.508 11.4181H24.0469C24.8398 11.4181 25.4826 10.7753 25.4826 9.98236V7.04912C25.4826 6.2562 24.8398 5.6134 24.0469 5.6134Z" stroke="white" stroke-width="2" stroke-linecap="round" stroke-linejoin="round"/>
<path d="M17.8811 1.70239H19.6764C20.8986 1.70239 21.8904 2.69419 21.8904 3.91637V5.61338H15.6699V3.91637C15.6699 2.69419 16.6617 1.70239 17.8839 1.70239H17.8811Z" stroke="white" stroke-width="2" stroke-linecap="round" stroke-linejoin="round"/>
<path d="M10.4199 28.7534L15.4379 33.6562L26.6005 25.0222" stroke="white" stroke-width="2" stroke-linecap="round" stroke-linejoin="round"/>
</svg>
