<svg width="72" height="70" viewBox="0 0 72 70" fill="none" xmlns="http://www.w3.org/2000/svg">
<g clip-path="url(#clip0_2406_79188)">
<path d="M25.1868 20.7024C26.4518 25.7664 30.5484 29.4753 35.4048 29.4753C41.2716 29.4753 46.0497 24.0628 46.0262 17.3891C46.0262 16.7233 45.615 16.0379 43.7194 15.0236C42.1058 14.162 38.3656 14.0836 36.6346 13.2338C34.3748 12.1254 33.2821 10.0458 33.0784 9.43481C33.6111 14.0327 30.3447 14.0993 29.2129 14.7024C28.081 15.3056 27.5445 16.0732 27.8147 17.3852C28.0849 18.6972 26.863 19.4296 25.1946 20.6985" stroke="white" stroke-width="2" stroke-linecap="round" stroke-linejoin="round"/>
<path d="M45.3406 22.5821C45.7636 22.5782 46.1944 22.6957 46.5743 22.9464C47.5887 23.6161 47.8667 24.9829 47.197 25.9973C46.5273 27.0116 45.1605 27.2897 44.1461 26.62C43.7819 26.3811 43.5156 26.0521 43.3511 25.684" stroke="white" stroke-width="2" stroke-linecap="round" stroke-linejoin="round"/>
<path d="M27.4896 25.5196C27.3447 25.9191 27.0862 26.2794 26.7181 26.5497C25.735 27.2664 24.3564 27.051 23.6397 26.0679C22.923 25.0849 23.1384 23.7063 24.1214 22.9896C24.4739 22.735 24.8734 22.598 25.2768 22.5706" stroke="white" stroke-width="2" stroke-linecap="round" stroke-linejoin="round"/>
<path d="M52.7781 38.2401C52.7781 38.2401 54.192 36.0078 53.8003 34.0495C53.299 31.5352 50.6045 31.6292 50.675 29.8863C50.7651 27.7166 53.5379 26.107 53.2598 24.4307C53.0484 23.1383 51.3055 22.6958 51.0901 21.2937C50.7807 19.2884 51.7598 19.077 51.5014 17.107C51.2429 15.137 49.1593 15.9125 49.1828 14.2676C49.3277 3.61873 39.5914 2.85111 32.628 5.07565C32.628 5.07565 22.0497 0.869388 20.7572 13.2845C20.5262 15.4895 18.9557 15.1096 18.2468 16.7036C17.816 17.671 19.0536 19.1357 18.6854 21.0665C18.4426 22.3511 16.7664 23.3615 16.5627 24.2036C15.8891 26.9725 19.6332 28.4333 19.1241 30.2623C18.6149 32.0913 13.3786 33.2036 17.393 38.5104" stroke="white" stroke-width="2" stroke-linecap="round" stroke-linejoin="round"/>
<path d="M29.8199 8.23242C29.205 14.7063 22.7898 11.2324 25.1867 15.799" stroke="white" stroke-width="2" stroke-linecap="round" stroke-linejoin="round"/>
<path d="M36.1724 7.31201C39.4504 13.5431 44.6162 9.44256 46.6019 13.9112" stroke="white" stroke-width="2" stroke-linecap="round" stroke-linejoin="round"/>
<path d="M22.0536 68.6161C22.0536 68.6161 23.0327 60.1918 20.7729 55.9033C20.021 58.3119 16.9348 68.6161 16.9348 68.6161" stroke="white" stroke-width="2" stroke-linecap="round" stroke-linejoin="round"/>
<path d="M48.0863 68.6161C48.0863 68.6161 47.1072 60.1918 49.367 55.9033C50.1189 58.3119 53.2051 68.6161 53.2051 68.6161" stroke="white" stroke-width="2" stroke-linecap="round" stroke-linejoin="round"/>
<path d="M34.8759 54.9243C34.8759 48.3055 26.6396 43.7898 26.6396 43.7898C23.2558 45.6697 17.7649 55.0731 23.5534 59.6632" stroke="white" stroke-width="2" stroke-linecap="round" stroke-linejoin="round"/>
<path d="M34.876 54.9243C34.876 48.3055 43.1123 43.7898 43.1123 43.7898C46.4961 45.6697 51.9869 55.0731 46.1984 59.6632" stroke="white" stroke-width="2" stroke-linecap="round" stroke-linejoin="round"/>
<path d="M9.03906 68.0914L14.9059 43.7938C16.1004 38.8512 20.5221 35.3695 25.6056 35.3695H29.8237V28.2886" stroke="white" stroke-width="2" stroke-linecap="round" stroke-linejoin="round"/>
<path d="M60.9282 68.0914L55.0613 43.7938C53.8668 38.8512 49.4451 35.3695 44.3616 35.3695H40.1436V28.2886" stroke="white" stroke-width="2" stroke-linecap="round" stroke-linejoin="round"/>
<path d="M30.0234 35.8787L33.7597 40.6646" stroke="white" stroke-width="2" stroke-linecap="round" stroke-linejoin="round"/>
<path d="M40.6842 35.5183L36.5249 40.6645" stroke="white" stroke-width="2" stroke-linecap="round" stroke-linejoin="round"/>
<path d="M36.5248 40.7114C36.5248 39.9478 35.9058 39.3289 35.1423 39.3289C34.3787 39.3289 33.7598 39.9478 33.7598 40.7114V43.7309C33.7598 44.4945 34.3787 45.1135 35.1423 45.1135C35.9058 45.1135 36.5248 44.4945 36.5248 43.7309V40.7114Z" stroke="white" stroke-width="2" stroke-linecap="round" stroke-linejoin="round"/>
<path d="M43.1123 43.7938V35.5183" stroke="white" stroke-width="2" stroke-linecap="round" stroke-linejoin="round"/>
<path d="M26.5378 43.7938V35.5183" stroke="white" stroke-width="2" stroke-linecap="round" stroke-linejoin="round"/>
</g>
<defs>
<clipPath id="clip0_2406_79188">
<rect width="72" height="69.5953" fill="white"/>
</clipPath>
</defs>
</svg>
